<svg width="33" height="33" viewBox="0 0 33 33" fill="none" xmlns="http://www.w3.org/2000/svg">
<circle cx="16.5" cy="16.5" r="16.5" fill="#FF8A00"/>
<path d="M16.7102 10.5912C17.8965 10.5912 18.9372 10.823 19.8323 11.2868C20.7381 11.7505 21.4337 12.4137 21.919 13.2765C22.4151 14.1284 22.6631 15.1206 22.6631 16.2529C22.6631 17.3853 22.4151 18.3775 21.919 19.2294C21.4337 20.0706 20.7381 20.723 19.8323 21.1868C18.9372 21.6505 17.8965 21.8824 16.7102 21.8824H12.7631V10.5912H16.7102ZM16.6293 19.9574C17.8156 19.9574 18.7323 19.6338 19.3793 18.9868C20.0264 18.3397 20.3499 17.4284 20.3499 16.2529C20.3499 15.0775 20.0264 14.1608 19.3793 13.5029C18.7323 12.8343 17.8156 12.5 16.6293 12.5H15.0279V19.9574H16.6293Z" fill="white"/>
</svg>
